<?xml version="1.0" standalone="no"?><!DOCTYPE svg PUBLIC "-//W3C//DTD SVG 1.1//EN" "http://www.w3.org/Graphics/SVG/1.1/DTD/svg11.dtd"><svg t="1719811067900" class="icon" viewBox="0 0 1024 1024" version="1.1" xmlns="http://www.w3.org/2000/svg" p-id="14764" xmlns:xlink="http://www.w3.org/1999/xlink" width="200" height="200"><path d="M530.842219 491.318189l369.869935-202.147149a37.383705 37.383705 0 0 0 0-66.513242L584.894227 50.663959A152.606141 152.606141 0 0 0 512.382315 32.220051h-0.815819a152.542155 152.542155 0 0 0-72.543904 18.443908L121.844966 223.409631a37.399702 37.399702 0 0 0 0 66.529239L490.27522 491.318189a42.550559 42.550559 0 0 0 40.566999 0" fill="#909399" opacity=".96" p-id="14765"></path><path d="M545.063064 581.90609v375.052785a36.951801 36.951801 0 0 0 55.219748 30.393256l293.310922-158.524827a137.377519 137.377519 0 0 0 66.193313-108.327965V395.643417a36.951801 36.951801 0 0 0-55.363716-30.233292L563.522968 551.656801A34.648312 34.648312 0 0 0 545.063064 581.90609" fill="#909399" opacity=".35" p-id="14766"></path><path d="M460.249882 553.048492L119.349519 366.801816A36.951801 36.951801 0 0 0 63.985803 397.067101v323.28827a124.196444 124.196444 0 0 0 66.353278 108.615901l293.150957 158.364863a36.951801 36.951801 0 0 0 55.219748-30.393257V583.297781a34.61632 34.61632 0 0 0-18.459904-30.249289" fill="#909399" opacity=".96" p-id="14767"></path></svg>