<?xml version="1.0" standalone="no"?><!DOCTYPE svg PUBLIC "-//W3C//DTD SVG 1.1//EN" "http://www.w3.org/Graphics/SVG/1.1/DTD/svg11.dtd"><svg t="1719830882359" class="icon" viewBox="0 0 1024 1024" version="1.1" xmlns="http://www.w3.org/2000/svg" p-id="21301" xmlns:xlink="http://www.w3.org/1999/xlink" width="200" height="200"><path d="M512 938.666667C276.352 938.666667 85.333333 747.648 85.333333 512S276.352 85.333333 512 85.333333s426.666667 191.018667 426.666667 426.666667-191.018667 426.666667-426.666667 426.666667z m0 42.666666c259.2 0 469.333333-210.133333 469.333333-469.333333S771.2 42.666667 512 42.666667 42.666667 252.8 42.666667 512s210.133333 469.333333 469.333333 469.333333z" fill="#4674C7" p-id="21302"></path><path d="M512 768a256 256 0 0 0 0-512v234.666667L290.261333 640A255.914667 255.914667 0 0 0 512 768z" fill="#4674C7" p-id="21303"></path></svg>