<?xml version="1.0" standalone="no"?><!DOCTYPE svg PUBLIC "-//W3C//DTD SVG 1.1//EN" "http://www.w3.org/Graphics/SVG/1.1/DTD/svg11.dtd"><svg t="1719811002742" class="icon" viewBox="0 0 1039 1024" version="1.1" xmlns="http://www.w3.org/2000/svg" p-id="10613" xmlns:xlink="http://www.w3.org/1999/xlink" width="202.9296875" height="200"><path d="M443.54049 925.649718h-192.843692c-84.851224 0-154.274953-69.423729-154.274952-154.274953v-520.677967c0-84.851224 69.423729-154.274953 154.274952-154.274952h462.824859c84.851224 0 154.274953 69.423729 154.274953 154.274952v150.41808c0 21.212806-17.355932 38.568738-38.568738 38.568738s-38.568738-17.355932-38.568738-38.568738v-150.41808c0-42.425612-34.711864-77.137476-77.137477-77.137476h-462.824859c-42.425612 0-77.137476 34.711864-77.137476 77.137476v520.677967c0 42.425612 34.711864 77.137476 77.137476 77.137476h192.843692c21.212806 0 38.568738 17.355932 38.568738 38.568738s-17.355932 38.568738-38.568738 38.568739z" fill="#388CEB" p-id="10614"></path><path d="M684.595104 559.246704c79.065913 0 144.632768 65.566855 144.632768 144.632769s-65.566855 144.632768-144.632768 144.632768-144.632768-65.566855-144.632769-144.632768 63.638418-144.632768 144.632769-144.632769m0-77.137476c-123.419962 0-221.770245 98.350282-221.770245 221.770245s98.350282 221.770245 221.770245 221.770245 221.770245-98.350282 221.770244-221.770245c0-121.491525-100.278719-221.770245-221.770244-221.770245z" fill="#388CEB" p-id="10615"></path><path d="M771.374765 761.73258h-96.421846c-15.427495 0-28.926554-13.499058-28.926554-28.926554v-115.706214c0-15.427495 13.499058-28.926554 28.926554-28.926554s28.926554 13.499058 28.926554 28.926554v86.779661h67.495292c15.427495 0 28.926554 13.499058 28.926553 28.926553s-13.499058 28.926554-28.926553 28.926554z" fill="#388CEB" p-id="10616"></path><path d="M636.384181 347.118644h-327.834275c-21.212806 0-38.568738-17.355932-38.568738-38.568738s17.355932-38.568738 38.568738-38.568738h327.834275c21.212806 0 38.568738 17.355932 38.568738 38.568738s-17.355932 38.568738-38.568738 38.568738zM385.687382 520.677966h-77.137476c-21.212806 0-38.568738-17.355932-38.568738-38.568738s17.355932-38.568738 38.568738-38.568738h77.137476c21.212806 0 38.568738 17.355932 38.568739 38.568738s-17.355932 38.568738-38.568739 38.568738z" fill="#E78E00" p-id="10617"></path></svg>